<svg xmlns="http://www.w3.org/2000/svg" viewBox="0 0 305.85 262.34"><defs><style>.cls-1{fill:#26c6b4;}.cls-2{fill:#fff;}</style></defs><g id="Layer_2" data-name="Layer 2"><g id="Layer_1-2" data-name="Layer 1"><path class="cls-1" d="M299.72,62.27c-4.9-2.86-14.87-8-14.87-8s-3.7-21.42-24-29.66c-17.12-7-37-8.42-56.9-9.81-8.29-.58-12.49-3.1-25.87-9S149.78-.85,142.49.7s-8,4.08-3.16,5.67c12.41,4.1,21.29,15.22,5.95,21.39C112.71,40.87,93,54.53,79.11,60.38c-16.56,7-26,4.2-31.35-7.14-3.94-8.43-5.54-13.71-13.32-17.1-4.57-2-7.66-3.19-3.84,3.77,2.64,4.8,1.94,14-2.48,21C23,69.05,15.83,78.19,4.11,80.24c-7,1.22-4.25,4.14,2.2,5,9.27,1.3,15.15.67,23.26-3.63,19.71-10.42,22.08-.55,41.92,2.28,25.24-16.1,63.55-21.69,96.68-8.4,29.47-17,60.54-20,99.29-11.68,7,1.5,21.88,5.63,28.38,8C305.62,75.36,310.55,68.59,299.72,62.27Z"/><path class="cls-2" d="M282.7,156.18v-5.53c0-39.45-25.69-59.16-66-59.16-19.28,0-36.89,6.44-47.78,17.76-10.9-11.32-28.51-17.76-47.79-17.76-40.28,0-66,19.71-66,59.16v5.53s0,.1,0,.16V259a3.27,3.27,0,0,0,3.22,3.33H80.57A3.27,3.27,0,0,0,83.79,259V175.63h.08V144.48c0-18.2,14.49-31.58,35.72-31.58,19.88,0,35.12,13.07,35.12,31.58V259a3.27,3.27,0,0,0,3.21,3.33H180a3.27,3.27,0,0,0,3.21-3.33V144.48c0-18.51,15.24-31.58,35.12-31.58,21.23,0,35.72,13.38,35.72,31.58v31.15h.08V259a3.27,3.27,0,0,0,3.22,3.33h22.17a3.27,3.27,0,0,0,3.22-3.33V156.34C282.71,156.28,282.7,156.23,282.7,156.18Z"/></g></g></svg>