<svg xmlns="http://www.w3.org/2000/svg" viewBox="0 0 1051 375.47"><defs><style>.cls-1{fill:#26c6b4;}.cls-2{fill:#fff;}</style></defs><g id="Layer_2" data-name="Layer 2"><g id="Layer_1-2" data-name="Layer 1"><path class="cls-1" d="M321.73,55.49C316.21,52.8,305.05,48,305.05,48s-5.7-22.82-28.2-30.09c-19-6.15-40.63-6.15-62.15-6.07-9,0-13.72-2.35-28.62-7.64S155-.68,147.23,1.56s-8.29,5-3,6.37c13.71,3.44,24.17,14.73,8.11,22.61C118.3,47.26,98.09,63.57,83.6,71c-17.31,8.85-27.77,6.59-34.38-5.21C44.29,57,42.14,51.42,33.48,48.38,28.4,46.6,25,45.55,29.64,52.75c3.23,5,3.2,15-1,22.87C23.76,84.78,16.75,95.21,4.26,98.36c-7.45,1.88-4.24,4.8,2.78,5.26,10.1.66,16.4-.48,24.8-5.76,20.44-12.81,23.78-2.35,45.4-.87,26-19.37,66.84-28.45,103.63-16.74,30.44-20.69,63.72-26.35,106.18-20.49,7.68,1.06,24.05,4.34,31.25,6.36C329.12,69.15,333.91,61.45,321.73,55.49Z"/><path class="cls-2" d="M300.76,172.64v-5.53c0-39.44-25.7-59.16-66-59.16-19.28,0-36.89,6.45-47.78,17.77C176.11,114.4,158.49,108,139.21,108c-40.27,0-66,19.72-66,59.16v5.53c0,.06,0,.11,0,.16V275.48a3.27,3.27,0,0,0,3.22,3.33H98.63a3.27,3.27,0,0,0,3.21-3.33V192.1h.08V161c0-18.2,14.49-31.59,35.73-31.59,19.87,0,35.11,13.07,35.11,31.59V275.43a3.28,3.28,0,0,0,3.21,3.34H198a3.28,3.28,0,0,0,3.22-3.34s0-100.78,0-114.48c0-18.52,15.24-31.59,35.12-31.59,21.24,0,35.73,13.39,35.73,31.59V192.1h.07v83.38a3.27,3.27,0,0,0,3.22,3.33h22.18a3.27,3.27,0,0,0,3.21-3.33V172.64Z"/><path class="cls-2" d="M497.18,26.3h22.26a3.27,3.27,0,0,1,3.22,3.33v155.2l71.54-71.71a3.18,3.18,0,0,1,2.24-.94h25.65a3.35,3.35,0,0,1,2.2,5.76l-67.54,67.8L635,273.45a3.35,3.35,0,0,1-2.3,5.66H603a3.17,3.17,0,0,1-2.34-1.05l-78-87.59v85.31a3.27,3.27,0,0,1-3.22,3.33H497.18a3.27,3.27,0,0,1-3.21-3.33V29.63A3.27,3.27,0,0,1,497.18,26.3Z"/><path class="cls-2" d="M1051,165.5c0-41.74-28.9-57.55-67.19-57.55-23.89,0-45.64,13.75-57,23.45a3.4,3.4,0,0,0-.6,4.44l7.32,12a3.15,3.15,0,0,0,4.78.6c11-9.67,26.74-18,44.56-18,19.79,0,39.47,3.3,39.47,39.16v3.05h-10.21c-9.75,0-20.46.6-32.15,1.41-43.19,3-68.23,26.22-68.23,56.43,0,8,1.58,16.93,4.76,23a44.09,44.09,0,0,0,12.76,15.34c12.55,9.34,31,13.95,52.79,13.95,16.36,0,29.76-1.78,40.86-5.47,22.67-7.54,28.1-23,28.1-50.81Zm-109.62,65c0-31.47,34.27-36.55,80.94-36.55v26.29c0,31.79-5.92,41.88-40.07,41.88C954.8,262.09,941.38,248.88,941.38,230.47Z"/><path class="cls-2" d="M781.51,165.5c0-41.74-28.91-57.55-67.2-57.55-23.89,0-45.63,13.75-57,23.45a3.4,3.4,0,0,0-.6,4.44l7.32,12a3.15,3.15,0,0,0,4.78.6c11-9.67,26.74-18,44.56-18,19.79,0,39.48,3.3,39.48,39.16v3.05H742.62c-9.76,0-20.47.6-32.16,1.41-43.19,3-68.23,26.22-68.23,56.43,0,8,1.58,16.93,4.76,23a44.19,44.19,0,0,0,12.76,15.34c12.55,9.34,31,13.95,52.79,13.95,16.36,0,29.76-1.78,40.86-5.47,22.67-7.54,28.11-23,28.11-50.81Zm-109.63,65c0-31.47,34.27-36.55,81-36.55v26.29c0,31.79-5.93,41.88-40.08,41.88C685.3,262.09,671.88,248.88,671.88,230.47Z"/><path class="cls-2" d="M465.14,165.5c0-41.74-28.91-57.55-67.2-57.55-23.89,0-45.63,13.75-57,23.45a3.4,3.4,0,0,0-.6,4.44l7.32,12a3.15,3.15,0,0,0,4.78.6c11-9.67,26.74-18,44.56-18,19.79,0,39.48,3.3,39.48,39.16v3.05H426.25c-9.76,0-20.47.6-32.16,1.41-43.19,3-68.23,26.22-68.23,56.43,0,8,1.58,16.93,4.76,23a44.19,44.19,0,0,0,12.76,15.34c12.55,9.34,31,13.95,52.79,13.95,16.36,0,29.76-1.78,40.86-5.47,22.67-7.54,28.11-23,28.11-50.81Zm-109.63,65c0-31.47,34.27-36.55,80.95-36.55v26.29c0,31.79-5.93,41.88-40.08,41.88C368.93,262.09,355.51,248.88,355.51,230.47Z"/><path class="cls-2" d="M901.5,132.36l5.21-14.06a3.34,3.34,0,0,0-2-4.69c-14.72-4-23.66-5.66-38.41-5.66-32.33,0-55.94,14-55.94,59.75v6.79s0,.1,0,.16V275.43a3.28,3.28,0,0,0,3.22,3.34H835.8a3.28,3.28,0,0,0,3.21-3.34V194h.08v-15.9c0-31.78,5-47.7,37-47.7a75.75,75.75,0,0,1,21.31,3.59A3.3,3.3,0,0,0,901.5,132.36Z"/><polygon class="cls-2" points="694.86 375.47 694.86 351.24 666.74 351.24 666.74 375.47 658.23 375.47 658.23 321.74 666.74 321.74 666.74 344.3 694.86 344.3 694.86 321.74 703.36 321.74 703.36 375.47 694.86 375.47"/><polygon class="cls-2" points="734.48 375.47 734.48 321.74 770.47 321.74 770.47 328.71 742.98 328.71 742.98 344.21 769.03 344.21 769.03 351.14 742.98 351.14 742.98 368.51 771.91 368.51 771.91 375.47 734.48 375.47"/><polygon class="cls-2" points="877.6 375.47 877.6 321.74 886.1 321.74 886.1 368.51 910.23 368.51 910.23 375.47 877.6 375.47"/><polygon class="cls-2" points="946.74 375.47 946.74 328.67 929.35 328.67 929.35 321.74 972.64 321.74 972.64 328.67 955.25 328.67 955.25 375.47 946.74 375.47"/><polygon class="cls-2" points="1036.89 375.47 1036.89 351.14 1008.77 351.14 1008.77 375.47 1000.26 375.47 1000.26 321.74 1008.77 321.74 1008.77 344.21 1036.89 344.21 1036.89 321.74 1045.39 321.74 1045.39 375.47 1036.89 375.47"/><path class="cls-2" d="M836.45,375.47V357.66H810v17.81h-8.26V343.14c0-13.44,6.81-22,21.42-22s21.57,8.62,21.57,21.54v32.83Zm-13.31-47.91c-11.79,0-13.16,9.63-13.16,15.58v7.52h26.47v-8C836.45,336,834.87,327.56,823.14,327.56Z"/></g></g></svg>